<mxfile host="app.diagrams.net" agent="Mozilla/5.0 (Windows NT 10.0; Win64; x64) AppleWebKit/537.36 (KHTML, like Gecko) Chrome/134.0.0.0 Safari/537.36" version="26.0.16">
  <diagram name="Page-1" id="wWC-L11ET0ichYGvPPN7">
    <mxGraphModel dx="792" dy="1105" grid="1" gridSize="10" guides="1" tooltips="1" connect="1" arrows="1" fold="1" page="1" pageScale="1" pageWidth="827" pageHeight="1169" math="0" shadow="0">
      <root>
        <mxCell id="0" />
        <mxCell id="1" parent="0" />
        <mxCell id="oWgh1L-FBsg8n1vNd40g-7" value="" style="edgeStyle=orthogonalEdgeStyle;rounded=0;orthogonalLoop=1;jettySize=auto;html=1;" parent="1" source="oWgh1L-FBsg8n1vNd40g-1" target="oWgh1L-FBsg8n1vNd40g-6" edge="1">
          <mxGeometry relative="1" as="geometry" />
        </mxCell>
        <mxCell id="oWgh1L-FBsg8n1vNd40g-1" value="Start" style="ellipse;whiteSpace=wrap;html=1;fillColor=#d5e8d4;strokeColor=#82b366;fontStyle=1" parent="1" vertex="1">
          <mxGeometry x="310" y="50" width="120" height="80" as="geometry" />
        </mxCell>
        <mxCell id="oWgh1L-FBsg8n1vNd40g-9" value="" style="edgeStyle=orthogonalEdgeStyle;rounded=0;orthogonalLoop=1;jettySize=auto;html=1;" parent="1" source="oWgh1L-FBsg8n1vNd40g-6" target="oWgh1L-FBsg8n1vNd40g-8" edge="1">
          <mxGeometry relative="1" as="geometry" />
        </mxCell>
        <mxCell id="oWgh1L-FBsg8n1vNd40g-6" value="&lt;span style=&quot;font-weight: normal;&quot;&gt;System checks loan accounts (every 15 minutes)&lt;/span&gt;" style="rounded=1;whiteSpace=wrap;html=1;fontStyle=1;" parent="1" vertex="1">
          <mxGeometry x="310" y="170" width="120" height="60" as="geometry" />
        </mxCell>
        <mxCell id="oWgh1L-FBsg8n1vNd40g-11" value="" style="edgeStyle=orthogonalEdgeStyle;rounded=0;orthogonalLoop=1;jettySize=auto;html=1;" parent="1" source="oWgh1L-FBsg8n1vNd40g-8" edge="1">
          <mxGeometry relative="1" as="geometry">
            <mxPoint x="370" y="370" as="targetPoint" />
          </mxGeometry>
        </mxCell>
        <mxCell id="oWgh1L-FBsg8n1vNd40g-8" value="&lt;span style=&quot;font-weight: normal;&quot;&gt;Retrieve loan contracts linked to accounts&lt;/span&gt;" style="rounded=1;whiteSpace=wrap;html=1;fontStyle=1;" parent="1" vertex="1">
          <mxGeometry x="310" y="270" width="120" height="60" as="geometry" />
        </mxCell>
        <mxCell id="oWgh1L-FBsg8n1vNd40g-12" value="Wait for next cycle (every 15 minutes)" style="rounded=1;whiteSpace=wrap;html=1;" parent="1" vertex="1">
          <mxGeometry x="120" y="480" width="120" height="60" as="geometry" />
        </mxCell>
        <mxCell id="oWgh1L-FBsg8n1vNd40g-37" value="" style="edgeStyle=orthogonalEdgeStyle;rounded=0;orthogonalLoop=1;jettySize=auto;html=1;" parent="1" source="oWgh1L-FBsg8n1vNd40g-13" target="oWgh1L-FBsg8n1vNd40g-18" edge="1">
          <mxGeometry relative="1" as="geometry" />
        </mxCell>
        <mxCell id="oWgh1L-FBsg8n1vNd40g-13" value="Create repayment transaction from &lt;b&gt;Bank Accoiunt&lt;/b&gt; to &lt;b&gt;Loan Contracts&lt;/b&gt;" style="rounded=1;whiteSpace=wrap;html=1;" parent="1" vertex="1">
          <mxGeometry x="490" y="480" width="120" height="60" as="geometry" />
        </mxCell>
        <mxCell id="oWgh1L-FBsg8n1vNd40g-14" value="" style="endArrow=classic;html=1;rounded=0;entryX=0.5;entryY=0;entryDx=0;entryDy=0;exitX=0;exitY=0.5;exitDx=0;exitDy=0;" parent="1" target="oWgh1L-FBsg8n1vNd40g-12" edge="1" source="3KH0VQHhRmsKbw3sgktE-1">
          <mxGeometry width="50" height="50" relative="1" as="geometry">
            <mxPoint x="330" y="410" as="sourcePoint" />
            <mxPoint x="400" y="540" as="targetPoint" />
            <Array as="points">
              <mxPoint x="180" y="435" />
            </Array>
          </mxGeometry>
        </mxCell>
        <mxCell id="oWgh1L-FBsg8n1vNd40g-15" value="Insufficient funds" style="text;html=1;align=center;verticalAlign=middle;resizable=0;points=[];autosize=1;strokeColor=none;fillColor=none;fontStyle=1" parent="1" vertex="1">
          <mxGeometry x="180" y="410" width="110" height="30" as="geometry" />
        </mxCell>
        <mxCell id="oWgh1L-FBsg8n1vNd40g-16" value="" style="endArrow=classic;html=1;rounded=0;entryX=0.5;entryY=0;entryDx=0;entryDy=0;exitX=1;exitY=0.5;exitDx=0;exitDy=0;" parent="1" source="3KH0VQHhRmsKbw3sgktE-1" target="oWgh1L-FBsg8n1vNd40g-13" edge="1">
          <mxGeometry width="50" height="50" relative="1" as="geometry">
            <mxPoint x="410" y="410" as="sourcePoint" />
            <mxPoint x="420" y="540" as="targetPoint" />
            <Array as="points">
              <mxPoint x="550" y="435" />
            </Array>
          </mxGeometry>
        </mxCell>
        <mxCell id="oWgh1L-FBsg8n1vNd40g-17" value="Sufficient funds" style="text;html=1;align=center;verticalAlign=middle;whiteSpace=wrap;rounded=0;fontStyle=1" parent="1" vertex="1">
          <mxGeometry x="460" y="410" width="100" height="30" as="geometry" />
        </mxCell>
        <mxCell id="oWgh1L-FBsg8n1vNd40g-38" value="" style="edgeStyle=orthogonalEdgeStyle;rounded=0;orthogonalLoop=1;jettySize=auto;html=1;" parent="1" source="oWgh1L-FBsg8n1vNd40g-18" target="oWgh1L-FBsg8n1vNd40g-22" edge="1">
          <mxGeometry relative="1" as="geometry" />
        </mxCell>
        <mxCell id="oWgh1L-FBsg8n1vNd40g-18" value="Seleact loan for repayments (&lt;b&gt;oldest first&lt;/b&gt;)" style="rounded=1;whiteSpace=wrap;html=1;" parent="1" vertex="1">
          <mxGeometry x="490" y="570" width="120" height="60" as="geometry" />
        </mxCell>
        <mxCell id="oWgh1L-FBsg8n1vNd40g-19" value="" style="endArrow=none;dashed=1;html=1;dashPattern=1 3;strokeWidth=2;rounded=0;" parent="1" edge="1">
          <mxGeometry width="50" height="50" relative="1" as="geometry">
            <mxPoint x="456" y="1040" as="sourcePoint" />
            <mxPoint x="456" y="10" as="targetPoint" />
          </mxGeometry>
        </mxCell>
        <mxCell id="oWgh1L-FBsg8n1vNd40g-20" value="" style="endArrow=none;dashed=1;html=1;dashPattern=1 3;strokeWidth=2;rounded=0;" parent="1" edge="1">
          <mxGeometry width="50" height="50" relative="1" as="geometry">
            <mxPoint x="290" y="1040" as="sourcePoint" />
            <mxPoint x="290" y="10" as="targetPoint" />
          </mxGeometry>
        </mxCell>
        <mxCell id="oWgh1L-FBsg8n1vNd40g-39" value="" style="edgeStyle=orthogonalEdgeStyle;rounded=0;orthogonalLoop=1;jettySize=auto;html=1;entryX=0.5;entryY=0;entryDx=0;entryDy=0;" parent="1" source="oWgh1L-FBsg8n1vNd40g-22" edge="1">
          <mxGeometry relative="1" as="geometry">
            <mxPoint x="550" y="760" as="targetPoint" />
          </mxGeometry>
        </mxCell>
        <mxCell id="oWgh1L-FBsg8n1vNd40g-22" value="Process transaction &amp;amp; update &lt;b&gt;Loan Contract&lt;/b&gt;" style="rounded=1;whiteSpace=wrap;html=1;" parent="1" vertex="1">
          <mxGeometry x="490" y="670" width="120" height="60" as="geometry" />
        </mxCell>
        <mxCell id="oWgh1L-FBsg8n1vNd40g-26" value="" style="edgeStyle=orthogonalEdgeStyle;rounded=0;orthogonalLoop=1;jettySize=auto;html=1;" parent="1" target="oWgh1L-FBsg8n1vNd40g-25" edge="1">
          <mxGeometry relative="1" as="geometry">
            <mxPoint x="510" y="800" as="sourcePoint" />
          </mxGeometry>
        </mxCell>
        <mxCell id="oWgh1L-FBsg8n1vNd40g-33" value="" style="edgeStyle=orthogonalEdgeStyle;rounded=0;orthogonalLoop=1;jettySize=auto;html=1;" parent="1" target="oWgh1L-FBsg8n1vNd40g-32" edge="1">
          <mxGeometry relative="1" as="geometry">
            <mxPoint x="550" y="840" as="sourcePoint" />
          </mxGeometry>
        </mxCell>
        <mxCell id="oWgh1L-FBsg8n1vNd40g-30" value="" style="edgeStyle=orthogonalEdgeStyle;rounded=0;orthogonalLoop=1;jettySize=auto;html=1;" parent="1" source="oWgh1L-FBsg8n1vNd40g-25" target="oWgh1L-FBsg8n1vNd40g-28" edge="1">
          <mxGeometry relative="1" as="geometry" />
        </mxCell>
        <mxCell id="oWgh1L-FBsg8n1vNd40g-25" value="End the cycle" style="rounded=1;whiteSpace=wrap;html=1;" parent="1" vertex="1">
          <mxGeometry x="320" y="770" width="120" height="60" as="geometry" />
        </mxCell>
        <mxCell id="oWgh1L-FBsg8n1vNd40g-27" value="&lt;b&gt;No&lt;/b&gt;" style="text;html=1;align=center;verticalAlign=middle;whiteSpace=wrap;rounded=0;" parent="1" vertex="1">
          <mxGeometry x="450" y="770" width="60" height="30" as="geometry" />
        </mxCell>
        <mxCell id="oWgh1L-FBsg8n1vNd40g-31" value="" style="edgeStyle=orthogonalEdgeStyle;rounded=0;orthogonalLoop=1;jettySize=auto;html=1;" parent="1" source="oWgh1L-FBsg8n1vNd40g-28" target="oWgh1L-FBsg8n1vNd40g-29" edge="1">
          <mxGeometry relative="1" as="geometry" />
        </mxCell>
        <mxCell id="oWgh1L-FBsg8n1vNd40g-28" value="Wait 15 minutes and restart the whole process" style="rounded=1;whiteSpace=wrap;html=1;" parent="1" vertex="1">
          <mxGeometry x="320" y="870" width="120" height="60" as="geometry" />
        </mxCell>
        <mxCell id="oWgh1L-FBsg8n1vNd40g-29" value="End" style="ellipse;whiteSpace=wrap;html=1;fontStyle=1;fillColor=#f8cecc;strokeColor=#b85450;" parent="1" vertex="1">
          <mxGeometry x="320" y="960" width="120" height="80" as="geometry" />
        </mxCell>
        <mxCell id="oWgh1L-FBsg8n1vNd40g-32" value="Repeat repayment" style="rounded=1;whiteSpace=wrap;html=1;" parent="1" vertex="1">
          <mxGeometry x="490" y="870" width="120" height="60" as="geometry" />
        </mxCell>
        <mxCell id="oWgh1L-FBsg8n1vNd40g-34" value="&lt;b&gt;Yes&lt;/b&gt;" style="text;html=1;align=center;verticalAlign=middle;whiteSpace=wrap;rounded=0;" parent="1" vertex="1">
          <mxGeometry x="540" y="840" width="60" height="30" as="geometry" />
        </mxCell>
        <mxCell id="oWgh1L-FBsg8n1vNd40g-35" value="" style="endArrow=classic;html=1;rounded=0;exitX=0.25;exitY=0;exitDx=0;exitDy=0;entryX=0;entryY=0.5;entryDx=0;entryDy=0;" parent="1" source="oWgh1L-FBsg8n1vNd40g-12" target="oWgh1L-FBsg8n1vNd40g-6" edge="1">
          <mxGeometry width="50" height="50" relative="1" as="geometry">
            <mxPoint x="330" y="580" as="sourcePoint" />
            <mxPoint x="380" y="530" as="targetPoint" />
            <Array as="points">
              <mxPoint x="150" y="200" />
            </Array>
          </mxGeometry>
        </mxCell>
        <mxCell id="oWgh1L-FBsg8n1vNd40g-36" value="Repeat the cycle" style="text;html=1;align=center;verticalAlign=middle;whiteSpace=wrap;rounded=0;fontStyle=1" parent="1" vertex="1">
          <mxGeometry x="160" y="170" width="100" height="30" as="geometry" />
        </mxCell>
        <mxCell id="oWgh1L-FBsg8n1vNd40g-40" value="&lt;b&gt;&lt;font style=&quot;color: rgb(0, 102, 204); font-size: 20px;&quot;&gt;System&lt;/font&gt;&lt;/b&gt;" style="text;html=1;align=center;verticalAlign=middle;whiteSpace=wrap;rounded=0;" parent="1" vertex="1">
          <mxGeometry x="335" y="10" width="70" height="30" as="geometry" />
        </mxCell>
        <mxCell id="oWgh1L-FBsg8n1vNd40g-41" value="&lt;b&gt;&lt;font style=&quot;color: rgb(0, 102, 204); font-size: 20px;&quot;&gt;Bank Account&lt;/font&gt;&lt;/b&gt;" style="text;html=1;align=center;verticalAlign=middle;whiteSpace=wrap;rounded=0;" parent="1" vertex="1">
          <mxGeometry x="143" y="10" width="140" height="30" as="geometry" />
        </mxCell>
        <mxCell id="oWgh1L-FBsg8n1vNd40g-42" value="&lt;b&gt;&lt;font style=&quot;color: rgb(0, 102, 204); font-size: 20px;&quot;&gt;Loan Contracts&lt;/font&gt;&lt;/b&gt;" style="text;html=1;align=center;verticalAlign=middle;whiteSpace=wrap;rounded=0;" parent="1" vertex="1">
          <mxGeometry x="460" y="10" width="150" height="30" as="geometry" />
        </mxCell>
        <mxCell id="oWgh1L-FBsg8n1vNd40g-43" value="&lt;b&gt;Rules:&lt;/b&gt;&lt;br&gt;&lt;div style=&quot;text-align: left;&quot;&gt;&lt;span style=&quot;background-color: transparent; color: light-dark(rgb(0, 0, 0), rgb(255, 255, 255));&quot;&gt;&lt;b&gt;1.&lt;/b&gt; Each loan contract in debt is checking its account for available funds every 15 minutes.&lt;/span&gt;&lt;/div&gt;&lt;div style=&quot;text-align: left;&quot;&gt;&lt;span style=&quot;background-color: transparent; color: light-dark(rgb(0, 0, 0), rgb(255, 255, 255));&quot;&gt;&lt;b&gt;2.&lt;/b&gt;&amp;nbsp;If there are sufficient funds to cover the debt, a transaction is created from the account to the loan contract to cover the debt.&lt;br&gt;&lt;b&gt;3.&amp;nbsp;&lt;/b&gt;&lt;/span&gt;&lt;span style=&quot;background-color: transparent; text-align: center;&quot;&gt;If there are multiple loans in debt, oldest debt is covered first.&lt;/span&gt;&lt;/div&gt;" style="rounded=1;whiteSpace=wrap;html=1;fillColor=#fff2cc;strokeColor=#d6b656;" parent="1" vertex="1">
          <mxGeometry x="130" y="1048" width="540" height="80" as="geometry" />
        </mxCell>
        <mxCell id="oWgh1L-FBsg8n1vNd40g-44" value="" style="endArrow=classic;html=1;rounded=0;entryX=1;entryY=0.5;entryDx=0;entryDy=0;exitX=1;exitY=0.5;exitDx=0;exitDy=0;" parent="1" source="oWgh1L-FBsg8n1vNd40g-32" target="oWgh1L-FBsg8n1vNd40g-13" edge="1">
          <mxGeometry width="50" height="50" relative="1" as="geometry">
            <mxPoint x="630" y="930" as="sourcePoint" />
            <mxPoint x="390" y="600" as="targetPoint" />
            <Array as="points">
              <mxPoint x="640" y="900" />
              <mxPoint x="640" y="510" />
            </Array>
          </mxGeometry>
        </mxCell>
        <mxCell id="oWgh1L-FBsg8n1vNd40g-45" value="Repeat repayment cycle" style="text;html=1;align=center;verticalAlign=middle;whiteSpace=wrap;rounded=0;fontStyle=1;rotation=90;" parent="1" vertex="1">
          <mxGeometry x="553" y="670" width="200" height="30" as="geometry" />
        </mxCell>
        <mxCell id="3KH0VQHhRmsKbw3sgktE-1" value="Check available funds in&amp;nbsp;&lt;b&gt;Bank Account&lt;/b&gt;" style="rhombus;whiteSpace=wrap;html=1;" vertex="1" parent="1">
          <mxGeometry x="315" y="370" width="110" height="130" as="geometry" />
        </mxCell>
        <mxCell id="3KH0VQHhRmsKbw3sgktE-2" value="Any remaining loans?" style="rhombus;whiteSpace=wrap;html=1;" vertex="1" parent="1">
          <mxGeometry x="495" y="760" width="110" height="80" as="geometry" />
        </mxCell>
      </root>
    </mxGraphModel>
  </diagram>
</mxfile>
